<svg width="32" height="32" viewBox="0 0 32 32" fill="none" xmlns="http://www.w3.org/2000/svg">
<path d="M0 4C0 1.79086 1.79086 0 4 0H28C30.2091 0 32 1.79086 32 4V28C32 30.2091 30.2091 32 28 32H4C1.79086 32 0 30.2091 0 28V4Z" fill="#333B45"/>
<path d="M12 10.6666H17.3333C18.0406 10.6666 18.7189 10.9476 19.219 11.4477C19.719 11.9478 20 12.626 20 13.3333C20 14.0405 19.719 14.7188 19.219 15.2189C18.7189 15.719 18.0406 16 17.3333 16H12V10.6666Z" stroke="white" stroke-linecap="round" stroke-linejoin="round"/>
<path d="M12 16H18C18.7072 16 19.3855 16.281 19.8856 16.781C20.3857 17.2811 20.6667 17.9594 20.6667 18.6667C20.6667 19.3739 20.3857 20.0522 19.8856 20.5523C19.3855 21.0524 18.7072 21.3333 18 21.3333H12V16Z" stroke="white" stroke-linecap="round" stroke-linejoin="round"/>
</svg>
