<svg width="32" height="32" viewBox="0 0 32 32" fill="none" xmlns="http://www.w3.org/2000/svg">
<path d="M0 4C0 1.79086 1.79086 0 4 0H28C30.2091 0 32 1.79086 32 4V28C32 30.2091 30.2091 32 28 32H4C1.79086 32 0 30.2091 0 28V4Z" fill="#333B45"/>
<path d="M8.5 8.5H23.5V23.5H8.5V8.5Z" stroke="white" stroke-linecap="round" stroke-linejoin="round"/>
<path d="M14.8253 18.44C14.7383 18.4834 14.6417 18.5038 14.5446 18.4994C14.4474 18.4949 14.3531 18.4657 14.2704 18.4146C14.1877 18.3634 14.1195 18.292 14.0722 18.2071C14.0248 18.1222 14 18.0266 14 17.9293V14.0707C14 13.9734 14.0248 13.8778 14.0722 13.7929C14.1195 13.708 14.1877 13.6366 14.2704 13.5854C14.3531 13.5343 14.4474 13.5051 14.5446 13.5006C14.6417 13.4962 14.7383 13.5166 14.8253 13.56L18.6847 15.49C18.7794 15.5373 18.8592 15.6101 18.9149 15.7002C18.9706 15.7902 19.0001 15.8941 19.0001 16C19.0001 16.1059 18.9706 16.2097 18.9149 16.2998C18.8592 16.3899 18.7794 16.4627 18.6847 16.51L14.8253 18.44Z" stroke="white" stroke-linecap="round" stroke-linejoin="round"/>
<path d="M8.5 11H23.5" stroke="white" stroke-linecap="round" stroke-linejoin="round"/>
<path d="M8.5 21H23.5" stroke="white" stroke-linecap="round" stroke-linejoin="round"/>
<path d="M24 28L28 28L28 24L24 28Z" fill="white"/>
</svg>
