<svg width="16" height="16" viewBox="0 0 16 16" fill="none" xmlns="http://www.w3.org/2000/svg">
<path d="M3.51282 12.3335L0.700154 9.51884C0.572119 9.39017 0.500244 9.21603 0.500244 9.03451C0.500244 8.85299 0.572119 8.67885 0.700154 8.55017L7.47815 1.77218C7.60683 1.64414 7.78097 1.57227 7.96249 1.57227C8.14401 1.57227 8.31815 1.64414 8.44682 1.77218L12.0782 5.40351C12.206 5.53216 12.2777 5.70615 12.2777 5.88751C12.2777 6.06887 12.206 6.24286 12.0782 6.37151L6.15349 12.2962" stroke="white" stroke-linecap="round" stroke-linejoin="round"/>
<path d="M3.12061 6.12939L7.71994 10.7294" stroke="white" stroke-linecap="round" stroke-linejoin="round"/>
<path d="M0.5 14.332H3.5" stroke="white" stroke-linecap="round" stroke-linejoin="round"/>
<path d="M8.5 14.332H9.5" stroke="white" stroke-linecap="round" stroke-linejoin="round"/>
<path d="M11.5 14.332H12.5" stroke="white" stroke-linecap="round" stroke-linejoin="round"/>
<path d="M14.5 14.332H15.5" stroke="white" stroke-linecap="round" stroke-linejoin="round"/>
<path d="M5.5 14.332H6.5" stroke="white" stroke-linecap="round" stroke-linejoin="round"/>
</svg>
