<svg width="16" height="16" viewBox="0 0 16 16" fill="none" xmlns="http://www.w3.org/2000/svg">
<path d="M10 4C10 4.27614 10.2239 4.5 10.5 4.5C10.7761 4.5 11 4.27614 11 4H10ZM5 12C5 12.2761 5.22386 12.5 5.5 12.5C5.77614 12.5 6 12.2761 6 12H5ZM7 6.5C7.27614 6.5 7.5 6.27614 7.5 6C7.5 5.72386 7.27614 5.5 7 5.5V6.5ZM4 5.5C3.72386 5.5 3.5 5.72386 3.5 6C3.5 6.27614 3.72386 6.5 4 6.5V5.5ZM12.3763 9.82925C12.5581 9.62143 12.5371 9.30555 12.3293 9.12371C12.1214 8.94187 11.8056 8.96293 11.6237 9.17075L12.3763 9.82925ZM8.12371 13.1707C7.94187 13.3786 7.96293 13.6944 8.17075 13.8763C8.37857 14.0581 8.69445 14.0371 8.87629 13.8293L8.12371 13.1707ZM8.87629 9.17075C8.69445 8.96293 8.37857 8.94187 8.17075 9.12371C7.96293 9.30555 7.94187 9.62143 8.12371 9.82925L8.87629 9.17075ZM11.6237 13.8293C11.8056 14.0371 12.1214 14.0581 12.3293 13.8763C12.5371 13.6944 12.5581 13.3786 12.3763 13.1707L11.6237 13.8293ZM11 4C11 3.56035 10.8401 2.93603 10.3716 2.41552C9.88878 1.879 9.12099 1.5 8 1.5V2.5C8.87901 2.5 9.36122 2.78767 9.62835 3.08448C9.90989 3.3973 10 3.77298 10 4H11ZM8 1.5C6.87901 1.5 6.11122 1.879 5.62835 2.41552C5.15989 2.93603 5 3.56035 5 4H6C6 3.77298 6.09011 3.3973 6.37165 3.08448C6.63878 2.78767 7.12099 2.5 8 2.5V1.5ZM5 4V12H6V4H5ZM7 5.5H4V6.5H7V5.5ZM11.6237 9.17075L8.12371 13.1707L8.87629 13.8293L12.3763 9.82925L11.6237 9.17075ZM8.12371 9.82925L11.6237 13.8293L12.3763 13.1707L8.87629 9.17075L8.12371 9.82925Z" fill="white"/>
</svg>
