<svg width="32" height="32" viewBox="0 0 32 32" fill="none" xmlns="http://www.w3.org/2000/svg">
<path d="M0 4C0 1.79086 1.79086 0 4 0H28C30.2091 0 32 1.79086 32 4V28C32 30.2091 30.2091 32 28 32H4C1.79086 32 0 30.2091 0 28V4Z" fill="#333B45"/>
<path d="M18 12C18 12.2761 18.2239 12.5 18.5 12.5C18.7761 12.5 19 12.2761 19 12H18ZM13 20C13 20.2761 13.2239 20.5 13.5 20.5C13.7761 20.5 14 20.2761 14 20H13ZM15 14.5C15.2761 14.5 15.5 14.2761 15.5 14C15.5 13.7239 15.2761 13.5 15 13.5V14.5ZM12 13.5C11.7239 13.5 11.5 13.7239 11.5 14C11.5 14.2761 11.7239 14.5 12 14.5V13.5ZM20.3763 17.8293C20.5581 17.6214 20.5371 17.3056 20.3293 17.1237C20.1214 16.9419 19.8056 16.9629 19.6237 17.1707L20.3763 17.8293ZM16.1237 21.1707C15.9419 21.3786 15.9629 21.6944 16.1707 21.8763C16.3786 22.0581 16.6944 22.0371 16.8763 21.8293L16.1237 21.1707ZM16.8763 17.1707C16.6944 16.9629 16.3786 16.9419 16.1707 17.1237C15.9629 17.3056 15.9419 17.6214 16.1237 17.8293L16.8763 17.1707ZM19.6237 21.8293C19.8056 22.0371 20.1214 22.0581 20.3293 21.8763C20.5371 21.6944 20.5581 21.3786 20.3763 21.1707L19.6237 21.8293ZM19 12C19 11.5604 18.8401 10.936 18.3716 10.4155C17.8888 9.879 17.121 9.5 16 9.5V10.5C16.879 10.5 17.3612 10.7877 17.6284 11.0845C17.9099 11.3973 18 11.773 18 12H19ZM16 9.5C14.879 9.5 14.1112 9.879 13.6284 10.4155C13.1599 10.936 13 11.5604 13 12H14C14 11.773 14.0901 11.3973 14.3716 11.0845C14.6388 10.7877 15.121 10.5 16 10.5V9.5ZM13 12V20H14V12H13ZM15 13.5H12V14.5H15V13.5ZM19.6237 17.1707L16.1237 21.1707L16.8763 21.8293L20.3763 17.8293L19.6237 17.1707ZM16.1237 17.8293L19.6237 21.8293L20.3763 21.1707L16.8763 17.1707L16.1237 17.8293Z" fill="white"/>
</svg>
