<svg width="16" height="16" viewBox="0 0 16 16" fill="none" xmlns="http://www.w3.org/2000/svg">
<path fill-rule="evenodd" clip-rule="evenodd" d="M5.62835 2.41552C6.11122 1.879 6.87901 1.5 8 1.5C9.12099 1.5 9.88878 1.879 10.3716 2.41552C10.8401 2.93603 11 3.56035 11 4C11 4.27614 10.7761 4.5 10.5 4.5C10.2239 4.5 10 4.27614 10 4C10 3.77298 9.90989 3.3973 9.62835 3.08448C9.36122 2.78767 8.87901 2.5 8 2.5C7.12099 2.5 6.63878 2.78767 6.37165 3.08448C6.09011 3.3973 6 3.77298 6 4V5.5H7C7.27614 5.5 7.5 5.72386 7.5 6C7.5 6.27614 7.27614 6.5 7 6.5H6V12C6 12.2761 5.77614 12.5 5.5 12.5C5.22386 12.5 5 12.2761 5 12V6.5H4C3.72386 6.5 3.5 6.27614 3.5 6C3.5 5.72386 3.72386 5.5 4 5.5H5V4C5 3.56035 5.15989 2.93603 5.62835 2.41552ZM8.17075 9.12371C8.37857 8.94187 8.69445 8.96293 8.87629 9.17075L10.25 10.7407L11.6237 9.17075C11.8056 8.96293 12.1214 8.94187 12.3293 9.12371C12.5371 9.30555 12.5581 9.62143 12.3763 9.82925L10.9144 11.5L12.3763 13.1707C12.5581 13.3786 12.5371 13.6944 12.3293 13.8763C12.1214 14.0581 11.8056 14.0371 11.6237 13.8293L10.25 12.2593L8.87629 13.8293C8.69445 14.0371 8.37857 14.0581 8.17075 13.8763C7.96293 13.6944 7.94187 13.3786 8.12371 13.1707L9.58562 11.5L8.12371 9.82925C7.94187 9.62143 7.96293 9.30555 8.17075 9.12371Z" fill="white"/>
</svg>
