<svg width="32" height="32" viewBox="0 0 32 32" fill="none" xmlns="http://www.w3.org/2000/svg">
<path d="M0 4C0 1.79086 1.79086 0 4 0H28C30.2091 0 32 1.79086 32 4V28C32 30.2091 30.2091 32 28 32H4C1.79086 32 0 30.2091 0 28V4Z" fill="#333B45"/>
<path d="M14.6667 16.6667C14.953 17.0494 15.3182 17.3661 15.7377 17.5953C16.1572 17.8245 16.621 17.9607 17.0978 17.9949C17.5745 18.029 18.053 17.9602 18.5009 17.7932C18.9487 17.6261 19.3554 17.3647 19.6933 17.0267L21.6933 15.0267C22.3005 14.398 22.6365 13.556 22.6289 12.682C22.6213 11.808 22.2707 10.972 21.6527 10.3539C21.0347 9.73591 20.1986 9.38535 19.3247 9.37775C18.4507 9.37016 17.6087 9.70614 16.98 10.3133L15.8333 11.4533" stroke="white" stroke-linecap="round" stroke-linejoin="round"/>
<path d="M17.3333 15.3333C17.047 14.9506 16.6818 14.6339 16.2623 14.4047C15.8428 14.1755 15.379 14.0392 14.9022 14.0051C14.4255 13.971 13.947 14.0397 13.4991 14.2068C13.0513 14.3739 12.6446 14.6353 12.3067 14.9733L10.3067 16.9733C9.69948 17.602 9.3635 18.444 9.3711 19.318C9.37869 20.192 9.72926 21.028 10.3473 21.646C10.9653 22.2641 11.8014 22.6146 12.6753 22.6222C13.5493 22.6298 14.3913 22.2938 15.02 21.6867L16.16 20.5467" stroke="white" stroke-linecap="round" stroke-linejoin="round"/>
</svg>
