<svg width="32" height="32" viewBox="0 0 32 32" fill="none" xmlns="http://www.w3.org/2000/svg">
<path d="M0 4C0 1.79086 1.79086 0 4 0H28C30.2091 0 32 1.79086 32 4V28C32 30.2091 30.2091 32 28 32H4C1.79086 32 0 30.2091 0 28V4Z" fill="#333B45"/>
<path d="M17.4133 17.4133C17.2302 17.6098 17.0094 17.7674 16.7641 17.8768C16.5188 17.9861 16.2539 18.0448 15.9854 18.0496C15.7169 18.0543 15.4501 18.0049 15.2011 17.9043C14.952 17.8037 14.7258 17.654 14.5359 17.4641C14.346 17.2742 14.1963 17.048 14.0957 16.7989C13.9951 16.5499 13.9457 16.2832 13.9504 16.0146C13.9552 15.7461 14.0139 15.4812 14.1233 15.2359C14.2326 14.9906 14.3902 14.7698 14.5867 14.5867M19.96 19.96C18.8204 20.8287 17.4327 21.3099 16 21.3333C11.3333 21.3333 8.66667 16 8.66667 16C9.49593 14.4546 10.6461 13.1044 12.04 12.04L19.96 19.96ZM14.6 10.8267C15.0589 10.7193 15.5287 10.6656 16 10.6667C20.6667 10.6667 23.3333 16 23.3333 16C22.9287 16.7571 22.446 17.4698 21.8933 18.1267L14.6 10.8267Z" stroke="white" stroke-linecap="round" stroke-linejoin="round"/>
<path d="M8.66667 8.66666L23.3333 23.3333" stroke="white" stroke-linecap="round" stroke-linejoin="round"/>
</svg>
