<svg width="16" height="16" viewBox="0 0 16 16" fill="none" xmlns="http://www.w3.org/2000/svg">
<path d="M9.41333 9.41334C9.23024 9.60984 9.00943 9.76744 8.7641 9.87676C8.51877 9.98607 8.25394 10.0448 7.9854 10.0496C7.71685 10.0543 7.45011 10.0049 7.20107 9.90433C6.95204 9.80374 6.72582 9.65403 6.5359 9.46411C6.34598 9.27419 6.19626 9.04797 6.09567 8.79893C5.99508 8.5499 5.94569 8.28315 5.95042 8.01461C5.95516 7.74607 6.01394 7.48124 6.12325 7.23591C6.23256 6.99057 6.39017 6.76977 6.58667 6.58667M11.96 11.96C10.8204 12.8287 9.43274 13.3099 8 13.3333C3.33333 13.3333 0.666668 8.00001 0.666668 8.00001C1.49593 6.4546 2.64609 5.10441 4.04 4.04001L11.96 11.96ZM6.6 2.82667C7.05889 2.71926 7.52871 2.66557 8 2.66667C12.6667 2.66667 15.3333 8.00001 15.3333 8.00001C14.9287 8.75708 14.446 9.46983 13.8933 10.1267L6.6 2.82667Z" stroke="white" stroke-linecap="round" stroke-linejoin="round" fill="none" />
<path d="M0.666668 0.666656L15.3333 15.3333" stroke="white" stroke-linecap="round" stroke-linejoin="round" fill="none" />
</svg>
