<svg width="16" height="16" viewBox="0 0 16 16" fill="none" xmlns="http://www.w3.org/2000/svg">
<path d="M0.5 0.5H15.5V15.5H0.5V0.5Z" stroke="white" stroke-linecap="round" stroke-linejoin="round" fill="none"/>
<path d="M6.82533 10.44C6.73833 10.4834 6.64169 10.5038 6.54457 10.4994C6.44745 10.4949 6.35308 10.4658 6.2704 10.4146C6.18773 10.3634 6.11949 10.292 6.07217 10.2071C6.02485 10.1222 6 10.0266 6 9.92934V6.07067C6 5.97345 6.02485 5.87784 6.07217 5.79292C6.11949 5.70799 6.18773 5.63657 6.2704 5.58541C6.35308 5.53426 6.44745 5.50507 6.54457 5.50063C6.64169 5.49618 6.73833 5.51662 6.82533 5.56001L10.6847 7.49001C10.7794 7.53731 10.8592 7.61009 10.9149 7.70017C10.9706 7.79026 11.0001 7.89408 11.0001 8.00001C11.0001 8.10593 10.9706 8.20976 10.9149 8.29984C10.8592 8.38992 10.7794 8.4627 10.6847 8.51001L6.82533 10.44Z" stroke="white" stroke-linecap="round" stroke-linejoin="round" fill="none" />
<path d="M0.5 3H15.5" stroke="white" stroke-linecap="round" stroke-linejoin="round"/>
<path d="M0.5 13H15.5" stroke="white" stroke-linecap="round" stroke-linejoin="round"/>
</svg>
