<svg width="16" height="16" viewBox="0 0 16 16" fill="none" xmlns="http://www.w3.org/2000/svg">
<g clip-path="url(#clip0)">
<path d="M5.5 2.49854H15.5" stroke="white" stroke-linecap="round" stroke-linejoin="round"/>
<path d="M5.5 8.49854H15.5" stroke="white" stroke-linecap="round" stroke-linejoin="round"/>
<path d="M5.5 14.4985H15.5" stroke="white" stroke-linecap="round" stroke-linejoin="round"/>
<path d="M0.533203 12.2399C0.581476 12.0596 0.679232 11.8964 0.815413 11.7688C0.951594 11.6412 1.12077 11.5543 1.30379 11.5178C1.48682 11.4813 1.6764 11.4968 1.85108 11.5625C2.02577 11.6282 2.17859 11.7414 2.29226 11.8894C2.40593 12.0374 2.47592 12.2143 2.49431 12.4C2.51269 12.5857 2.47874 12.7729 2.39629 12.9403C2.31385 13.1077 2.18619 13.2488 2.02777 13.3474C1.86936 13.4461 1.68649 13.4984 1.49987 13.4985C1.68619 13.4984 1.86883 13.5504 2.02719 13.6486C2.18555 13.7468 2.31334 13.8872 2.39615 14.0541C2.47895 14.221 2.51348 14.4078 2.49583 14.5932C2.47819 14.7787 2.40907 14.9556 2.29629 15.1039C2.1835 15.2522 2.03152 15.366 1.85749 15.4326C1.68346 15.4991 1.4943 15.5157 1.31133 15.4805C1.12837 15.4453 0.958885 15.3597 0.821986 15.2333C0.685088 15.1069 0.586222 14.9448 0.536536 14.7652" stroke="white" stroke-linecap="round" stroke-linejoin="round"/>
<path d="M0.5 7.49854C0.5 7.23332 0.605357 6.97896 0.792893 6.79143C0.98043 6.60389 1.23478 6.49854 1.5 6.49854V6.49854C1.76522 6.49854 2.01957 6.60389 2.20711 6.79143C2.39464 6.97896 2.5 7.23332 2.5 7.49854C2.5001 7.82223 2.39007 8.13633 2.188 8.3892L0.5 9.49854H2.5" stroke="white" stroke-linecap="round" stroke-linejoin="round"/>
<path d="M0.5 0.498535H1C1.13261 0.498535 1.25979 0.551214 1.35355 0.644982C1.44732 0.73875 1.5 0.865927 1.5 0.998535V4.49854" stroke="white" stroke-linecap="round" stroke-linejoin="round"/>
<path d="M0.5 4.49854H2.5" stroke="white" stroke-linecap="round" stroke-linejoin="round"/>
</g>
<defs>
<clipPath id="clip0">
<rect width="16" height="16" fill="white"/>
</clipPath>
</defs>
</svg>
