<svg width="16" height="16" viewBox="0 0 16 16" fill="none" xmlns="http://www.w3.org/2000/svg">
<g clip-path="url(#clip0)">
<path d="M5.5 2.49866H15.5" stroke="white" stroke-linecap="round" stroke-linejoin="round"/>
<path d="M5.5 8.49866H15.5" stroke="white" stroke-linecap="round" stroke-linejoin="round"/>
<path d="M5.5 14.4987H15.5" stroke="white" stroke-linecap="round" stroke-linejoin="round"/>
<path d="M0.533333 12.24C0.581606 12.0597 0.679362 11.8966 0.815543 11.7689C0.951723 11.6413 1.12089 11.5544 1.30392 11.5179C1.48695 11.4815 1.67653 11.4969 1.85121 11.5626C2.0259 11.6283 2.17872 11.7415 2.29239 11.8896C2.40606 12.0376 2.47605 12.2144 2.49444 12.4001C2.51282 12.5859 2.47887 12.773 2.39642 12.9404C2.31397 13.1079 2.18632 13.2489 2.0279 13.3475C1.86949 13.4462 1.68662 13.4985 1.5 13.4987C1.68632 13.4986 1.86896 13.5505 2.02732 13.6487C2.18568 13.7469 2.31347 13.8873 2.39627 14.0542C2.47908 14.2211 2.51361 14.4079 2.49596 14.5934C2.47832 14.7788 2.4092 14.9557 2.29642 15.104C2.18363 15.2523 2.03165 15.3662 1.85762 15.4327C1.68359 15.4992 1.49443 15.5158 1.31146 15.4806C1.1285 15.4454 0.959015 15.3598 0.822116 15.2334C0.685218 15.107 0.586352 14.9449 0.536666 14.7653" stroke="white" stroke-linecap="round" stroke-linejoin="round"/>
<path d="M0.5 7.49866C0.5 7.23344 0.605357 6.97909 0.792893 6.79155C0.98043 6.60401 1.23478 6.49866 1.5 6.49866V6.49866C1.76522 6.49866 2.01957 6.60401 2.20711 6.79155C2.39464 6.97909 2.5 7.23344 2.5 7.49866C2.5001 7.82235 2.39007 8.13645 2.188 8.38932L0.5 9.49866H2.5" stroke="white" stroke-linecap="round" stroke-linejoin="round"/>
<path d="M0.5 0.498657H1C1.13261 0.498657 1.25979 0.551336 1.35355 0.645104C1.44732 0.738872 1.5 0.866049 1.5 0.998657V4.49866" stroke="white" stroke-linecap="round" stroke-linejoin="round"/>
<path d="M0.5 4.49866H2.5" stroke="white" stroke-linecap="round" stroke-linejoin="round"/>
</g>
<defs>
<clipPath id="clip0">
<rect width="16" height="16" fill="white"/>
</clipPath>
</defs>
</svg>
