<svg width="16" height="16" viewBox="0 0 16 16" fill="none" xmlns="http://www.w3.org/2000/svg">
<path fill-rule="evenodd" clip-rule="evenodd" d="M4.5 5C4.5 3.067 6.067 1.5 8 1.5C9.933 1.5 11.5 3.067 11.5 5V13.9973C11.5 14.2735 11.2761 14.4973 11 14.4973C10.7239 14.4973 10.5 14.2735 10.5 13.9973V5C10.5 3.61929 9.38071 2.5 8 2.5C6.61929 2.5 5.5 3.61929 5.5 5V14C5.5 14.2761 5.27614 14.5 5 14.5C4.72386 14.5 4.5 14.2761 4.5 14V5Z" />
<path fill-rule="evenodd" clip-rule="evenodd" d="M4.5 9C4.5 8.72386 4.72386 8.5 5 8.5H11C11.2761 8.5 11.5 8.72386 11.5 9C11.5 9.27614 11.2761 9.5 11 9.5H5C4.72386 9.5 4.5 9.27614 4.5 9Z" />
</svg>
