<svg width="32" height="32" viewBox="0 0 32 32" fill="none" xmlns="http://www.w3.org/2000/svg">
<path d="M0 4C0 1.79086 1.79086 0 4 0H28C30.2091 0 32 1.79086 32 4V28C32 30.2091 30.2091 32 28 32H4C1.79086 32 0 30.2091 0 28V4Z" fill="#333B45"/>
<path d="M15.3826 18.2752C15.3826 18.8479 15.1499 19.349 14.6846 19.7785C14.2282 20.2081 13.6868 20.4228 13.0604 20.4228C12.0761 20.4228 11.3199 20.0962 10.7919 19.443C10.264 18.7897 10 17.8859 10 16.7315C10 15.6577 10.4519 14.5749 11.3557 13.4832C12.2685 12.3915 13.3647 11.5638 14.6443 11L15.2349 11.953C14.2237 12.4452 13.4318 13.0179 12.8591 13.6711C12.2864 14.3244 11.9553 15.1163 11.8658 16.047H12.6174C13.1723 16.047 13.6242 16.1096 13.9732 16.2349C14.3221 16.3602 14.604 16.5347 14.8188 16.7584C15.0246 16.9732 15.1678 17.2103 15.2483 17.4698C15.3378 17.7293 15.3826 17.9978 15.3826 18.2752ZM22 18.2752C22 18.8479 21.7673 19.349 21.302 19.7785C20.8456 20.2081 20.3043 20.4228 19.6779 20.4228C18.6935 20.4228 17.9374 20.0962 17.4094 19.443C16.8814 18.7897 16.6174 17.8859 16.6174 16.7315C16.6174 15.6577 17.0694 14.5749 17.9732 13.4832C18.8859 12.3915 19.9821 11.5638 21.2617 11L21.8523 11.953C20.8412 12.4452 20.0492 13.0179 19.4765 13.6711C18.9038 14.3244 18.5727 15.1163 18.4832 16.047H19.2349C19.7897 16.047 20.2416 16.1096 20.5906 16.2349C20.9396 16.3602 21.2215 16.5347 21.4362 16.7584C21.6421 16.9732 21.7852 17.2103 21.8658 17.4698C21.9553 17.7293 22 17.9978 22 18.2752Z" fill="white"/>
</svg>
