<svg width="16" height="16" viewBox="0 0 16 16" fill="none" xmlns="http://www.w3.org/2000/svg">
<path d="M7.38255 10.2752C7.38255 10.8479 7.14989 11.349 6.68456 11.7785C6.22819 12.2081 5.6868 12.4228 5.0604 12.4228C4.07606 12.4228 3.31991 12.0962 2.79195 11.443C2.26398 10.7897 2 9.88591 2 8.73154C2 7.65772 2.4519 6.57494 3.3557 5.48322C4.26846 4.3915 5.36465 3.56376 6.6443 3L7.2349 3.95302C6.22371 4.44519 5.43177 5.0179 4.85906 5.67114C4.28635 6.32438 3.95526 7.11633 3.86577 8.04698H4.61745C5.17226 8.04698 5.62416 8.10962 5.97315 8.2349C6.32215 8.36018 6.60403 8.53468 6.81879 8.75839C7.02461 8.97315 7.16779 9.21029 7.24832 9.4698C7.33781 9.72931 7.38255 9.99776 7.38255 10.2752ZM14 10.2752C14 10.8479 13.7673 11.349 13.302 11.7785C12.8456 12.2081 12.3043 12.4228 11.6779 12.4228C10.6935 12.4228 9.93736 12.0962 9.4094 11.443C8.88143 10.7897 8.61745 9.88591 8.61745 8.73154C8.61745 7.65772 9.06935 6.57494 9.97315 5.48322C10.8859 4.3915 11.9821 3.56376 13.2617 3L13.8523 3.95302C12.8412 4.44519 12.0492 5.0179 11.4765 5.67114C10.9038 6.32438 10.5727 7.11633 10.4832 8.04698H11.2349C11.7897 8.04698 12.2416 8.10962 12.5906 8.2349C12.9396 8.36018 13.2215 8.53468 13.4362 8.75839C13.6421 8.97315 13.7852 9.21029 13.8658 9.4698C13.9553 9.72931 14 9.99776 14 10.2752Z" fill="white"/>
</svg>
