<svg width="32" height="32" viewBox="0 0 32 32" fill="none" xmlns="http://www.w3.org/2000/svg">
<path d="M0 4C0 1.79086 1.79086 0 4 0H28C30.2091 0 32 1.79086 32 4V28C32 30.2091 30.2091 32 28 32H4C1.79086 32 0 30.2091 0 28V4Z" fill="#333B45"/>
<path d="M23 16H10" stroke="white" stroke-linecap="round" stroke-linejoin="round"/>
<path d="M20 18C20 19.1667 19.2 21.5 16 21.5C12.8 21.5 12 19 12 18" stroke="white" stroke-linecap="round"/>
<path d="M20 12.5C19.8333 11.6667 18.9 10 16.5 10C14.5 10 12.5 10.5 12.5 12.5C12.5 14.5 14 15 16.5 16" stroke="white" stroke-linecap="round"/>
</svg>
