<svg width="16" height="16" viewBox="0 0 16 16" fill="none" xmlns="http://www.w3.org/2000/svg">
<path d="M8.5 1.5C7.47446 1.5 6.38087 1.62555 5.52639 2.05279C5.09208 2.26994 4.70505 2.57228 4.42772 2.98827C4.14831 3.4074 4 3.91251 4 4.5C4 5.06439 4.10639 5.55324 4.33032 5.98163C4.55397 6.40947 4.87856 6.74584 5.26841 7.02937C5.49994 7.19775 5.76246 7.3524 6.05044 7.5H2C1.72386 7.5 1.5 7.72386 1.5 8C1.5 8.27614 1.72386 8.5 2 8.5H8.48836C8.49603 8.50018 8.50369 8.50018 8.51133 8.5H15C15.2761 8.5 15.5 8.27614 15.5 8C15.5 7.72386 15.2761 7.5 15 7.5H8.59608L8.36324 7.40708C7.24573 6.96165 6.42646 6.63509 5.85659 6.22063C5.55894 6.00416 5.35228 5.77803 5.21655 5.51837C5.08111 5.25926 5 4.93561 5 4.5C5 4.08749 5.10169 3.7801 5.25978 3.54297C5.41995 3.30272 5.65792 3.10506 5.97361 2.94721C6.61913 2.62445 7.52554 2.5 8.5 2.5C10.6058 2.5 11.3779 3.93889 11.5097 4.59806C11.5639 4.86884 11.8273 5.04445 12.0981 4.99029C12.3688 4.93613 12.5444 4.67272 12.4903 4.40194C12.2888 3.39444 11.1942 1.5 8.5 1.5Z" fill="white"/>
<path d="M4 9.5C4.27614 9.5 4.5 9.72386 4.5 10C4.5 10.3977 4.6681 11.1597 5.19043 11.8127C5.69389 12.442 6.54921 13 8 13C9.46338 13 10.3168 12.474 10.8139 11.8698C11.3279 11.2452 11.5 10.4885 11.5 10C11.5 9.72386 11.7239 9.5 12 9.5C12.2761 9.5 12.5 9.72386 12.5 10C12.5 10.6781 12.2721 11.6715 11.5861 12.5052C10.8832 13.3594 9.73662 14 8 14C6.25079 14 5.10611 13.308 4.40957 12.4373C3.7319 11.5903 3.5 10.6023 3.5 10C3.5 9.72386 3.72386 9.5 4 9.5Z" fill="white"/>
</svg>
