<svg width="16" height="16" viewBox="0 0 16 16" fill="none" xmlns="http://www.w3.org/2000/svg">
<path fill-rule="evenodd" clip-rule="evenodd" d="M0.5 3C0.5 1.61929 1.61929 0.5 3 0.5H13C14.3807 0.5 15.5 1.61929 15.5 3V13C15.5 14.3807 14.3807 15.5 13 15.5H3C1.61929 15.5 0.5 14.3807 0.5 13V3ZM3 1.5C2.17157 1.5 1.5 2.17157 1.5 3V13C1.5 13.8284 2.17157 14.5 3 14.5H13C13.8284 14.5 14.5 13.8284 14.5 13V3C14.5 2.17157 13.8284 1.5 13 1.5H3Z" fill="white" opacity=".6" />
<path d="M10 10H15.5V13.5C15.5 14.6046 14.6046 15.5 13.5 15.5H10V10Z" fill="white"/>
<path fill-rule="evenodd" clip-rule="evenodd" d="M5.99985 2.16675C6.19016 2.16675 6.36397 2.27478 6.44821 2.44544L7.36198 4.29665L9.4055 4.59534C9.59378 4.62286 9.75012 4.75486 9.80881 4.93587C9.8675 5.11687 9.81836 5.3155 9.68205 5.44826L8.20378 6.8881L8.55266 8.92223C8.58483 9.10982 8.50771 9.29941 8.35372 9.41128C8.19973 9.52314 7.99558 9.53788 7.82713 9.44929L5.99985 8.48834L4.17258 9.44929C4.00412 9.53788 3.79997 9.52314 3.64598 9.41128C3.492 9.29941 3.41487 9.10982 3.44705 8.92223L3.79592 6.8881L2.31765 5.44826C2.18134 5.3155 2.13221 5.11687 2.1909 4.93587C2.24958 4.75486 2.40592 4.62286 2.5942 4.59534L4.63772 4.29665L5.5515 2.44544C5.63573 2.27478 5.80954 2.16675 5.99985 2.16675ZM5.99985 3.79638L5.41821 4.97473C5.34544 5.12215 5.20484 5.22438 5.04217 5.24816L3.74072 5.43838L4.68205 6.35524C4.79999 6.47011 4.85382 6.63567 4.82599 6.79794L4.60394 8.09259L5.76713 7.48088C5.91282 7.40426 6.08689 7.40426 6.23258 7.48088L7.39576 8.09259L7.17371 6.79794C7.14588 6.63567 7.19972 6.47011 7.31765 6.35524L8.25898 5.43838L6.95754 5.24816C6.79486 5.22438 6.65427 5.12215 6.5815 4.97473L5.99985 3.79638Z" fill="white"/>
</svg>

