<svg width="16" height="16" viewBox="0 0 16 16" fill="none" xmlns="http://www.w3.org/2000/svg">
<path fill-rule="evenodd" clip-rule="evenodd" d="M0.5 3C0.5 1.61929 1.61929 0.5 3 0.5H13C14.3807 0.5 15.5 1.61929 15.5 3V13C15.5 14.3807 14.3807 15.5 13 15.5H3C1.61929 15.5 0.5 14.3807 0.5 13V3ZM3 1.5C2.17157 1.5 1.5 2.17157 1.5 3V13C1.5 13.8284 2.17157 14.5 3 14.5H13C13.8284 14.5 14.5 13.8284 14.5 13V3C14.5 2.17157 13.8284 1.5 13 1.5H3Z" fill="white"/>
<path fill-rule="evenodd" clip-rule="evenodd" d="M7.99985 4.16675C8.19016 4.16675 8.36397 4.27478 8.44821 4.44544L9.36198 6.29665L11.4055 6.59534C11.5938 6.62286 11.7501 6.75486 11.8088 6.93587C11.8675 7.11687 11.8184 7.3155 11.6821 7.44826L10.2038 8.8881L10.5527 10.9222C10.5848 11.1098 10.5077 11.2994 10.3537 11.4113C10.1997 11.5231 9.99558 11.5379 9.82713 11.4493L7.99985 10.4883L6.17258 11.4493C6.00412 11.5379 5.79997 11.5231 5.64598 11.4113C5.492 11.2994 5.41487 11.1098 5.44705 10.9222L5.79592 8.8881L4.31765 7.44826C4.18134 7.3155 4.13221 7.11687 4.1909 6.93587C4.24958 6.75486 4.40592 6.62286 4.5942 6.59534L6.63772 6.29665L7.5515 4.44544C7.63573 4.27478 7.80954 4.16675 7.99985 4.16675ZM7.99985 5.79638L7.41821 6.97473C7.34544 7.12215 7.20484 7.22438 7.04217 7.24816L5.74072 7.43838L6.68205 8.35524C6.79999 8.47011 6.85382 8.63567 6.82599 8.79794L6.60394 10.0926L7.76713 9.48088C7.91282 9.40426 8.08689 9.40426 8.23258 9.48088L9.39576 10.0926L9.17371 8.79794C9.14588 8.63567 9.19972 8.47011 9.31765 8.35524L10.259 7.43838L8.95754 7.24816C8.79486 7.22438 8.65427 7.12215 8.5815 6.97473L7.99985 5.79638Z" fill="white"/>
</svg>
