<svg width="16" height="16" viewBox="0 0 16 16" fill="none" xmlns="http://www.w3.org/2000/svg">
<path fill-rule="evenodd" clip-rule="evenodd" d="M15 6H1V5H15V6Z" fill="white" opacity=".6" />
<path fill-rule="evenodd" clip-rule="evenodd" d="M1 10H15V11H1V10Z" fill="white" opacity=".6" />
<path fill-rule="evenodd" clip-rule="evenodd" d="M0.5 3C0.5 1.61929 1.61929 0.5 3 0.5H13C14.3807 0.5 15.5 1.61929 15.5 3V13C15.5 14.3807 14.3807 15.5 13 15.5H3C1.61929 15.5 0.5 14.3807 0.5 13V3ZM3 1.5C2.17157 1.5 1.5 2.17157 1.5 3V13C1.5 13.8284 2.17157 14.5 3 14.5H13C13.8284 14.5 14.5 13.8284 14.5 13V3C14.5 2.17157 13.8284 1.5 13 1.5H3Z" fill="white" opacity=".6" />
<path fill-rule="evenodd" clip-rule="evenodd" d="M6 1L6 15H5L5 1H6Z" fill="white" opacity=".6" />
<path fill-rule="evenodd" clip-rule="evenodd" d="M11 1V15H10V1H11Z" fill="white" opacity=".6" />
<path d="M0.5 5H15.5V11H0.5V5Z" fill="white"/>
</svg>
